<?xml version="1.0" encoding="UTF-8" standalone="no"?>
<svg
   width="380.46906"
   viewBox="0 0 1000.2001 32987.885"
   version="1.1"
   id="svg45"
   sodipodi:docname="mila-white-v2.svg"
   height="32987.887"
   xmlns:inkscape="http://www.inkscape.org/namespaces/inkscape"
   xmlns:sodipodi="http://sodipodi.sourceforge.net/DTD/sodipodi-0.dtd"
   xmlns="http://www.w3.org/2000/svg"
   xmlns:svg="http://www.w3.org/2000/svg">
  <defs
     id="defs45" />
  <sodipodi:namedview
     id="namedview45"
     pagecolor="#ffffff"
     bordercolor="#000000"
     borderopacity="0.25"
     inkscape:showpageshadow="2"
     inkscape:pageopacity="0.0"
     inkscape:pagecheckerboard="0"
     inkscape:deskcolor="#d1d1d1" />
  <path
     d="m 622.77,-70340.187 a 5.44,5.44 0 0 1 -5.43,5.43 H 584.9 a 5.43,5.43 0 0 1 -5.43,-5.43 v -173.51 a 1.76,1.76 0 0 0 -3.39,-0.65 l -70.08,174.59 a 7.93,7.93 0 0 1 -7.38,5 h -31 a 8,8 0 0 1 -7.39,-5 l -69.85,-173.84 a 1.76,1.76 0 0 0 -3.4,0.65 v 172.75 a 5.44,5.44 0 0 1 -5.43,5.43 h -31.3 a 5.43,5.43 0 0 1 -5.43,-5.43 v -275.73 a 5.44,5.44 0 0 1 5.43,-5.43 h 32.34 a 6.54,6.54 0 0 1 6.05,4.06 l 92.8,227 a 1.92,1.92 0 0 0 3.55,0 l 92.79,-226.95 a 6.53,6.53 0 0 1 6.11,-4.06 h 33.5 a 5.41,5.41 0 0 1 5.38,5.41 v 275.72 z"
     style="fill:#ffffff"
     id="path1" />
  <path
     d="m 665.92,-70576.537 a 26.71,26.71 0 0 1 -8.08,-19.62 27.18,27.18 0 0 1 8.08,-19.83 26.85,26.85 0 0 1 19.83,-8.09 26,26 0 0 1 19.44,8.08 26.85,26.85 0 0 1 8.09,19.83 26,26 0 0 1 -8.09,19.44 26.07,26.07 0 0 1 -19.44,8.28 26.86,26.86 0 0 1 -19.83,-8.09 m 40.8,53.53 v 182.8 a 5.41,5.41 0 0 1 -5.41,5.41 h -31.13 a 5.41,5.41 0 0 1 -5.41,-5.41 v -182.8 a 5.41,5.41 0 0 1 5.41,-5.41 h 31.13 a 5.41,5.41 0 0 1 5.41,5.41"
     style="fill:#ffffff"
     id="path2" />
  <path
     d="M 754.16,-70621.387 H 785 a 5.45,5.45 0 0 1 5.45,5.45 v 275.7 a 5.45,5.45 0 0 1 -5.45,5.45 h -30.84 a 5.45,5.45 0 0 1 -5.45,-5.45 v -275.7 a 5.45,5.45 0 0 1 5.45,-5.45"
     style="fill:#ffffff"
     id="path3" />
  <path
     d="m 960,-70338.457 a 191.89,191.89 0 0 1 -2.26,-20.39 c -5.58,8.66 -13.67,15.78 -24.44,21.17 -10.77,5.39 -23.29,8.08 -37.53,8.08 q -31.47,0 -50.82,-16.74 c -12.89,-11.17 -19.25,-26.37 -19.25,-45.62 0,-19.25 6.35,-33.68 19,-44.46 12.65,-10.78 29.84,-16.17 51.39,-16.17 H 957 v -7.49 c 0,-26.37 -14.44,-39.46 -43.5,-39.46 q -33.09,0 -48.22,24.42 a 5.57,5.57 0 0 1 -7.5,1.83 l -21.11,-12.15 a 5.57,5.57 0 0 1 -2.14,-7.58 q 24,-41.05 81.09,-40.78 c 24.06,0 43.88,6.16 59.28,18.48 15.4,12.32 23.1,32.31 23.1,59.84 v 79.3 c 0,16.74 0.71,28.75 2.12,36.22 a 4.34,4.34 0 0 1 -4.29,5.17 h -31.36 a 4.53,4.53 0 0 1 -4.49,-3.68 m -3,-84.67 h -51.42 q -18.18,0 -27.71,8.08 c -6.35,5.39 -9.62,12.9 -9.62,22.71 0,9.81 3.27,17.52 10,22.71 6.73,5.19 16,7.69 27.72,7.69 14.44,0 26.56,-4.81 36.37,-14.24 9.81,-9.43 14.68,-23.48 14.68,-42.15 v -4.81 z"
     style="fill:#ffffff"
     id="path4" />
  <path
     d="m 217.48,-70476.837 a 8.65,8.65 0 1 1 -8.66,-8.63 8.66,8.66 0 0 1 8.66,8.63"
     style="fill:#ffffff"
     id="path5" />
  <path
     d="m 296.33,-70476.837 a 8.65,8.65 0 1 1 -8.66,-8.63 8.66,8.66 0 0 1 8.66,8.63"
     style="fill:#ffffff"
     id="path6" />
  <path
     d="m 256.66,-70543.727 a 8.65,8.65 0 1 1 -8.66,-8.63 8.66,8.66 0 0 1 8.66,8.63"
     style="fill:#ffffff"
     id="path7" />
  <path
     d="m 177.8,-70543.727 a 8.65,8.65 0 1 1 -8.66,-8.63 8.66,8.66 0 0 1 8.66,8.63"
     style="fill:#ffffff"
     id="path8" />
  <path
     d="m 217.48,-70610.167 a 8.65,8.65 0 1 1 -8.66,-8.63 8.66,8.66 0 0 1 8.66,8.63"
     style="fill:#ffffff"
     id="path9" />
  <path
     d="m 193.76,-70608.077 h -21.27 a 2.1,2.1 0 0 1 0,-4.19 h 21.27 a 2.1,2.1 0 0 1 0,4.19"
     style="fill:#ffffff"
     id="path10" />
  <path
     d="m 216.57,-70487.947 a 2,2 0 0 1 -1.06,-0.29 2.09,2.09 0 0 1 -0.73,-2.87 l 23.95,-40.6 a 2.0914648,2.0914648 0 1 1 3.6,2.13 l -24,40.6 a 2.1,2.1 0 0 1 -1.8,1"
     style="fill:#ffffff"
     id="path11" />
  <path
     d="m 177.07,-70554.297 a 2,2 0 0 1 -1.06,-0.29 2.09,2.09 0 0 1 -0.74,-2.86 l 24.09,-40.84 a 2.1087022,2.1087022 0 1 1 3.64,2.13 l -24.12,40.83 a 2.1,2.1 0 0 1 -1.8,1"
     style="fill:#ffffff"
     id="path12" />
  <path
     d="m 148,-70505.287 a 2,2 0 0 1 -1.06,-0.29 2.11,2.11 0 0 1 -0.74,-2.87 l 13.89,-23.51 a 2.0846163,2.0846163 0 1 1 3.59,2.12 l -13.89,23.51 a 2.1,2.1 0 0 1 -1.8,1"
     style="fill:#ffffff"
     id="path13" />
  <path
     d="m 240.52,-70554.297 a 2.08,2.08 0 0 1 -1.8,-1 l -23.95,-40.62 a 2.0914648,2.0914648 0 1 1 3.6,-2.13 l 23.95,40.6 a 2.08,2.08 0 0 1 -0.74,2.86 2,2 0 0 1 -1.06,0.29"
     style="fill:#ffffff"
     id="path14" />
  <path
     d="m 161.91,-70554.297 a 2.08,2.08 0 0 1 -1.8,-1 l -6.29,-10.63 a 2.1008689,2.1008689 0 0 1 3.61,-2.15 l 6.29,10.63 a 2.09,2.09 0 0 1 -0.74,2.87 2.07,2.07 0 0 1 -1.06,0.29"
     style="fill:#ffffff"
     id="path15" />
  <path
     d="m 201.18,-70487.947 a 2.08,2.08 0 0 1 -1.8,-1 l -24.1,-40.84 a 2.0940153,2.0940153 0 0 1 3.6,-2.14 l 24.12,40.85 a 2.1,2.1 0 0 1 -0.74,2.86 2,2 0 0 1 -1.06,0.29"
     style="fill:#ffffff"
     id="path16" />
  <path
     d="m 232.93,-70541.637 h -48.71 a 2.09,2.09 0 1 1 0,-4.18 h 48.71 a 2.09,2.09 0 1 1 0,4.18"
     style="fill:#ffffff"
     id="path17" />
  <path
     d="m 279.82,-70487.947 a 2.08,2.08 0 0 1 -1.8,-1 l -24.08,-40.84 a 2.0932331,2.0932331 0 0 1 3.61,-2.12 l 24.08,40.83 a 2.09,2.09 0 0 1 -0.74,2.87 2,2 0 0 1 -1.06,0.29"
     style="fill:#ffffff"
     id="path18" />
  <path
     d="m 154.07,-70545.817 a 2.09,2.09 0 1 1 0,4.18 h -15.71 a 2.1,2.1 0 0 1 0,-4.19 h 15.71 z"
     style="fill:#ffffff"
     id="path19" />
  <path
     d="M 193.76,-70474.747 H 166.7 a 2.1,2.1 0 1 1 0,-4.19 h 27.06 a 2.1,2.1 0 0 1 0,4.19"
     style="fill:#ffffff"
     id="path20" />
  <path
     d="m 272.61,-70474.747 h -48.69 a 2.1,2.1 0 1 1 0,-4.19 h 48.69 a 2.1,2.1 0 0 1 0,4.19"
     style="fill:#ffffff"
     id="path21" />
  <path
     d="m 35,-70508.727 a 35,35 0 1 0 -35,-35 35,35 0 0 0 35,35"
     style="fill:#ffffff"
     id="path22" />
  <path
     d="m 79.74,-70543.727 a 25.63,25.63 0 1 0 25.63,-25.63 25.66,25.66 0 0 0 -25.63,25.63"
     style="fill:#ffffff"
     id="path23" />
  <path
     d="m 20.85,-70458.887 a 17.95,17.95 0 1 0 -18,-17.95 18,18 0 0 0 18,17.95"
     style="fill:#ffffff"
     id="path24" />
  <path
     d="m 142,-70570.917 a 26.58,26.58 0 1 0 -26.58,-26.58 26.61,26.61 0 0 0 26.58,26.58"
     style="fill:#ffffff"
     id="path25" />
  <path
     d="m 132.58,-70450.257 a 26.58,26.58 0 1 0 -26.58,-26.58 26.61,26.61 0 0 0 26.58,26.58"
     style="fill:#ffffff"
     id="path26" />
  <path
     d="m 77.42,-70576.477 a 21,21 0 1 0 -21,-21 21,21 0 0 0 21,21"
     style="fill:#ffffff"
     id="path27" />
  <path
     d="m 72.17,-70455.817 a 21,21 0 1 0 -21,-21 21,21 0 0 0 21,21"
     style="fill:#ffffff"
     id="path28" />
  <path
     d="m 256.66,-70409.937 a 8.65,8.65 0 1 0 -8.66,8.63 8.66,8.66 0 0 0 8.66,-8.63"
     style="fill:#ffffff"
     id="path29" />
  <path
     d="m 177.8,-70409.937 a 8.65,8.65 0 1 0 -8.66,8.63 8.66,8.66 0 0 0 8.66,-8.63"
     style="fill:#ffffff"
     id="path30" />
  <path
     d="m 217.48,-70343.507 a 8.65,8.65 0 1 0 -8.66,8.63 8.66,8.66 0 0 0 8.66,-8.63"
     style="fill:#ffffff"
     id="path31" />
  <path
     d="m 193.76,-70345.597 h -21.27 a 2.1,2.1 0 0 0 0,4.19 h 21.27 a 2.1,2.1 0 0 0 0,-4.19"
     style="fill:#ffffff"
     id="path32" />
  <path
     d="m 216.57,-70465.717 a 2,2 0 0 0 -1.06,0.29 2.09,2.09 0 0 0 -0.73,2.87 l 23.95,40.6 a 2.0914648,2.0914648 0 1 0 3.6,-2.13 l -24,-40.6 a 2.1,2.1 0 0 0 -1.8,-1"
     style="fill:#ffffff"
     id="path33" />
  <path
     d="m 177.07,-70399.367 a 2,2 0 0 0 -1.07,0.29 2.09,2.09 0 0 0 -0.74,2.86 l 24.09,40.84 a 2.1,2.1 0 0 0 3.61,-2.13 l -24.09,-40.83 a 2.1,2.1 0 0 0 -1.8,-1"
     style="fill:#ffffff"
     id="path34" />
  <path
     d="m 148,-70448.387 a 2,2 0 0 0 -1,0.31 2.11,2.11 0 0 0 -0.74,2.87 l 13.89,23.51 a 2.0846163,2.0846163 0 1 0 3.59,-2.12 l -13.89,-23.51 a 2.1,2.1 0 0 0 -1.8,-1"
     style="fill:#ffffff"
     id="path35" />
  <path
     d="m 240.52,-70399.367 a 2.08,2.08 0 0 0 -1.8,1 l -23.95,40.59 a 2.0914648,2.0914648 0 1 0 3.6,2.13 l 23.95,-40.6 a 2.08,2.08 0 0 0 -0.74,-2.86 2,2 0 0 0 -1.06,-0.29"
     style="fill:#ffffff"
     id="path36" />
  <path
     d="m 161.91,-70399.367 a 2.08,2.08 0 0 0 -1.8,1 l -6.29,10.63 a 2.1,2.1 0 0 0 3.61,2.13 l 6.29,-10.63 a 2.09,2.09 0 0 0 -0.72,-2.84 2.07,2.07 0 0 0 -1.06,-0.29"
     style="fill:#ffffff"
     id="path37" />
  <path
     d="m 201.18,-70465.717 a 2.08,2.08 0 0 0 -1.8,1 l -24.1,40.84 a 2.0940153,2.0940153 0 0 0 3.6,2.14 l 24.12,-40.82 a 2.1,2.1 0 0 0 -0.74,-2.86 2,2 0 0 0 -1.06,-0.29"
     style="fill:#ffffff"
     id="path38" />
  <path
     d="m 232.93,-70412.027 h -48.71 a 2.09,2.09 0 1 0 0,4.18 h 48.71 a 2.09,2.09 0 1 0 0,-4.18"
     style="fill:#ffffff"
     id="path39" />
  <path
     d="m 279.82,-70465.717 a 2.08,2.08 0 0 0 -1.8,1 l -24.08,40.84 a 2.0932331,2.0932331 0 0 0 3.61,2.12 l 24.08,-40.8 a 2.09,2.09 0 0 0 -0.74,-2.87 2,2 0 0 0 -1.06,-0.29"
     style="fill:#ffffff"
     id="path40" />
  <path
     d="m 154.07,-70407.847 a 2.09,2.09 0 1 0 0,-4.18 h -15.71 a 2.1,2.1 0 0 0 0,4.19 h 15.71 z"
     style="fill:#ffffff"
     id="path41" />
  <path
     d="m 35,-70444.937 a 35,35 0 1 1 -35,35 35,35 0 0 1 35,-35"
     style="fill:#ffffff"
     id="path42" />
  <path
     d="m 79.74,-70409.937 a 25.63,25.63 0 1 1 25.63,25.63 25.66,25.66 0 0 1 -25.63,-25.63"
     style="fill:#ffffff"
     id="path43" />
  <path
     d="m 142,-70382.757 a 26.58,26.58 0 1 1 -26.58,26.58 26.61,26.61 0 0 1 26.58,-26.58"
     style="fill:#ffffff"
     id="path44" />
  <path
     d="m 77.42,-70377.197 a 21,21 0 1 1 -21,21 21,21 0 0 1 21,-21"
     style="fill:#ffffff"
     id="path45" />
</svg>
