<?xml version="1.0" encoding="UTF-8" standalone="no"?>
<svg
   id="Layer_1"
   data-name="Layer 1"
   viewBox="0 0 126181.32 21089.295"
   version="1.1"
   sodipodi:docname="logo_udem-noir.svg"
   width="126181.32"
   height="21089.295"
   xmlns:inkscape="http://www.inkscape.org/namespaces/inkscape"
   xmlns:sodipodi="http://sodipodi.sourceforge.net/DTD/sodipodi-0.dtd"
   xmlns="http://www.w3.org/2000/svg"
   xmlns:svg="http://www.w3.org/2000/svg">
  <defs
     id="defs18" />
  <sodipodi:namedview
     id="namedview18"
     pagecolor="#ffffff"
     bordercolor="#000000"
     borderopacity="0.25"
     inkscape:showpageshadow="2"
     inkscape:pageopacity="0.0"
     inkscape:pagecheckerboard="0"
     inkscape:deskcolor="#d1d1d1" />
  <title
     id="title1">logo_udemArtboard 1 copy</title>
  <path
     d="m -1491.75,-1807.33 v 19.74 0.75 h -0.75 -9.5 -0.76 l 0.05,-0.75 v -18 c 0,-5.25 -3,-7.76 -6.75,-7.76 -3.75,0 -6.75,2.51 -6.75,7.76 v 18 0.75 h -0.75 -9.58 -0.76 l 0.05,-0.75 v -18 a 17.74,17.74 0 0 1 28.78,-13.9 l 0.21,0.65 0.21,-0.63 c 0.32,-0.34 0.64,-0.66 1,-1 l 0.65,-0.15 -0.6,-0.28 a 16.41,16.41 0 0 1 -4.22,-11 v -39.35 l -0.08,-0.75 0.76,0.05 h 9.54 l 0.75,-0.05 v 0.75 39.38 c 0,4.27 2.46,6.31 5.49,6.31 3.03,0 5.49,-2 5.49,-6.31 v -39.38 -0.75 l 0.75,0.05 h 9.52 l 0.76,-0.05 v 0.75 39.38 a 16.41,16.41 0 0 1 -4.22,11 l -0.6,0.28 0.65,0.15 c 0.33,0.31 0.66,0.63 1,1 l 0.21,0.63 0.21,-0.65 a 17.74,17.74 0 0 1 28.78,13.9 v 18 0.75 h -0.76 -9.58 -0.75 v -0.75 -18 c 0,-5.25 -3,-7.76 -6.75,-7.76 -3.75,0 -6.75,2.51 -6.75,7.76 v 18 0.75 h -0.76 -9.58 -0.75 v -0.75 -19.77 c 0,-5.44 -3.13,-8 -7,-8 -3.87,0 -7,2.6 -7,8"
     id="path1"
     style="fill:#ffffff" />
  <path
     d="m -1707.64,-1743 a 8.85,8.85 0 0 1 -5.77,2.06 c -3.47,0 -6.44,-2.52 -6.44,-9.35 0,-7 2.43,-10.3 6.38,-10.3 a 7.41,7.41 0 0 1 5.83,2.38 z m 0,4.69 h 10.13 v -1.06 l -3.75,-0.9 v -34.46 h -10.41 v 1.18 l 4,1.12 v 11.65 a 12.32,12.32 0 0 0 -8,-2.7 c -6.33,0 -11,5.55 -11,13.27 0,7.91 4.27,12.49 11,12.49 a 11.7,11.7 0 0 0 8,-3 v 2.46"
     id="path2"
     style="fill:#ffffff" />
  <polyline
     points="182.67 109.27 182.67 110.39 178.86 111.39 178.86 143.59 182.67 144.6 182.67 145.72 166.84 145.72 166.84 144.55 171.92 143.59 171.92 117.95 160.08 145.72 157.34 145.72 145.71 117.83 145.71 143.59 150.6 144.43 150.6 145.72 139.16 145.72 139.16 144.6 142.4 143.65 142.4 111.34 139.16 110.39 139.16 109.27 149.35 109.27 160.68 137.17 172.33 109.27 182.67 109.27"
     id="polyline2"
     style="fill:#ffffff"
     transform="translate(-1795,-1884)" />
  <path
     d="m -1596.42,-1761.69 c 4.36,0 6.66,4.88 6.66,11 0,6.12 -2.3,11.14 -6.66,11.14 -4.36,0 -6.67,-5 -6.67,-11.14 0,-6.14 2.35,-11 6.67,-11 z m 0,-1.79 c -7.17,0 -13.61,5 -13.61,12.88 0,7.67 6.49,12.88 13.61,12.88 7.12,0 13.66,-5.21 13.66,-12.88 0,-7.89 -6.5,-12.88 -13.66,-12.88"
     id="path3"
     style="fill:#ffffff" />
  <path
     d="m -1464.57,-1742.37 a 7.33,7.33 0 0 1 -4.42,1.68 c -3.25,0.06 -4.15,-2 -4.15,-4.31 0,-2.31 1.63,-4 4.59,-4.53 l 4,-0.45 v 7.61 z m 0,-13.49 v 4.2 l -5.65,0.28 c -5.49,0.17 -8.91,3.13 -8.91,7.22 0,4.09 3.08,6.44 7.17,6.44 a 12.27,12.27 0 0 0 7.39,-2.8 v 2.24 h 9.28 v -1.06 l -3,-0.9 v -16.69 c 0,-3.64 -2.41,-6.55 -7.84,-6.55 a 25.5,25.5 0 0 0 -11,2.41 v 5.77 h 2.77 l 0.92,-4.8 a 10.78,10.78 0 0 1 5.1,-0.63 c 3.3,0.27 3.7,2.57 3.75,4.87"
     id="path4"
     style="fill:#ffffff" />
  <polyline
     points="356.48 144.66 356.48 145.72 342.59 145.72 342.59 144.66 346.34 143.76 346.34 111.4 342.59 110.45 342.59 109.27 352.73 109.27 352.73 143.76 356.48 144.66"
     id="polyline4"
     style="fill:#ffffff"
     transform="translate(-1795,-1884)" />
  <path
     d="m -1759.55,-1821.1 -5.45,-1.07 v -1.17 h 12.6 v 1.12 l -3.84,1.12 v 22.1 c 0,9.17 -5,12.89 -15.25,12.89 -10.5,0 -14.76,-4 -14.76,-12.32 v -22.84 l -3.75,-0.95 v -1.12 h 16.13 v 1.23 l -5.49,1 v 22.3 c 0,6.76 2.3,10.08 9.35,10.08 7.65,0 10.46,-3.45 10.46,-10.7 v -21.67"
     id="path5"
     style="fill:#ffffff" />
  <path
     d="m -1737.85,-1787.95 v 1.06 h -13.61 v -1.06 l 3.7,-0.9 v -20.83 l -3.36,-0.95 v -1.17 h 9.74 v 3.8 c 1.12,-1 4.65,-4.09 9.18,-4.09 4.71,0 7.12,2.63 7.12,7.23 v 16 l 3.58,0.86 v 1.12 h -13.22 v -1.12 l 3.31,-0.84 v -15.3 c 0,-2.4 -0.73,-4.53 -3.75,-4.53 -2.69,0 -5.44,1.9 -6.22,2.41 v 17.41 l 3.53,0.9"
     id="path6"
     style="fill:#ffffff" />
  <polyline
     points="85.86 95.15 89.55 96.05 89.55 97.11 75.72 97.11 75.72 96.05 79.47 95.15 79.47 74.32 76.11 73.37 76.11 72.2 85.86 72.2 85.86 95.15"
     id="polyline6"
     style="fill:#ffffff"
     transform="translate(-1795,-1884)" />
  <path
     d="m -1708.81,-1820.38 a 3.62,3.62 0 0 1 -3.69,3.48 3.66,3.66 0 0 1 -3.7,-3.48 3.7,3.7 0 0 1 3.7,-3.52 3.66,3.66 0 0 1 3.69,3.52"
     id="path7"
     style="fill:#ffffff" />
  <polyline
     points="195.85 95.15 199.55 96.05 199.55 97.11 185.72 97.11 185.72 96.05 189.47 95.15 189.47 74.32 186.11 73.37 186.11 72.2 195.85 72.2 195.85 95.15"
     id="polyline7"
     style="fill:#ffffff"
     transform="translate(-1795,-1884)" />
  <path
     d="m -1598.81,-1820.38 a 3.62,3.62 0 0 1 -3.7,3.48 3.66,3.66 0 0 1 -3.7,-3.48 3.7,3.7 0 0 1 3.7,-3.52 3.66,3.66 0 0 1 3.7,3.52"
     id="path8"
     style="fill:#ffffff" />
  <polyline
     points="91.57 73.93 89.78 73.2 89.78 72.2 101.88 72.2 101.88 73.2 98.01 74.16 103.57 89.33 109.08 74.04 105.72 73.2 105.72 72.2 114 72.2 114 73.2 111.99 74.16 102.5 97.5 100.43 97.5 91.57 73.93"
     id="polyline8"
     style="fill:#ffffff"
     transform="translate(-1795,-1884)" />
  <path
     d="m -1663.43,-1802.85 h -9.91 c 0.56,-4.25 2.24,-7.39 5.2,-7.39 3.36,0 4.48,3.92 4.71,7.39 z m -10.19,2 h 16.46 c -0.17,-6.88 -3.75,-11.2 -11,-11.2 -7.25,0 -12.37,6.16 -12.37,12.88 0,7.79 5.1,12.88 12.43,12.88 a 17.4,17.4 0 0 0 11.42,-3.86 l -1.06,-1.68 a 14.47,14.47 0 0 1 -9.18,2.58 c -4.82,-0.34 -7.23,-5.38 -6.72,-11.6"
     id="path9"
     style="fill:#ffffff" />
  <path
     d="m -1614.29,-1810.8 -0.56,6.11 h -2.3 l -0.56,-4.15 a 7.59,7.59 0 0 0 -4.42,-1.4 c -2,0 -3.59,1.07 -3.59,3.25 0,2.58 2.86,3.59 5.72,4.87 2.86,1.28 7.22,2.86 7.22,7.28 0,5 -4.14,8.51 -9.13,8.51 a 22,22 0 0 1 -8.09,-1.34 l -0.45,-6.78 2.35,-0.22 1.35,4.59 a 7.9,7.9 0 0 0 4.75,1.91 c 3.19,0 4.7,-1.68 4.7,-4.09 0,-2.86 -4,-4.09 -6.61,-5.32 -2.46,-1.18 -6.27,-2.24 -6.27,-7.34 0,-4.2 3.47,-7.17 8.18,-7.17 a 23.29,23.29 0 0 1 7.67,1.29"
     id="path10"
     style="fill:#ffffff" />
  <polyline
     points="241.98 63.96 239.57 60.38 231 67.1 232.4 69.11 241.98 63.96"
     id="polyline10"
     style="fill:#ffffff"
     transform="translate(-1795,-1884)" />
  <path
     d="m -1557.73,-1802.85 h -9.91 c 0.56,-4.25 2.24,-7.39 5.21,-7.39 3.36,0 4.48,3.92 4.7,7.39 z m -10.19,2 h 16.47 c -0.17,-6.88 -3.76,-11.2 -11,-11.2 -7.24,0 -12.35,6.12 -12.35,12.84 0,7.79 5.09,12.88 12.43,12.88 a 17.4,17.4 0 0 0 11.42,-3.86 l -1.05,-1.68 a 14.5,14.5 0 0 1 -9.19,2.58 c -4.81,-0.34 -7.22,-5.38 -6.72,-11.6"
     id="path11"
     style="fill:#ffffff" />
  <path
     d="m -1636.08,-1812 c -3.59,0 -6.17,2.88 -7.63,6.12 h -0.12 v -5.92 H -1654 v 1 l 3.75,1.09 v 20.86 l -3.75,0.9 v 1.06 h 15.6 v -1.23 l -5.43,-0.88 v -14.16 c 1.49,-3.27 3.68,-4.59 5.08,-4.59 a 2.84,2.84 0 0 1 2.25,0.9 2.45,2.45 0 0 0 2,0.25 2.53,2.53 0 0 0 1.55,-2.72 3,3 0 0 0 -3.13,-2.68"
     id="path12"
     style="fill:#ffffff" />
  <path
     d="m -1566.64,-1739.34 v 1.06 h -13.61 v -1.06 l 3.7,-0.9 v -20.83 l -3.36,-1 v -1.17 h 9.74 v 3.8 c 1.12,-1 4.65,-4.09 9.18,-4.09 4.71,0 7.12,2.63 7.12,7.23 v 16 l 3.58,0.89 v 1.12 h -13.21 v -1.11 l 3.3,-0.84 v -15.29 c 0,-2.4 -0.73,-4.53 -3.75,-4.53 -2.69,0 -5.43,1.9 -6.22,2.41 v 17.41 l 3.53,0.9"
     id="path13"
     style="fill:#ffffff" />
  <path
     d="m -1510.73,-1763.44 c -3.59,0 -6.17,2.88 -7.63,6.12 h -0.12 v -5.87 h -10.13 v 1 l 3.75,1.09 v 20.83 l -3.75,0.9 v 1.06 h 15.61 v -1.23 l -5.44,-0.9 v -14.11 c 1.49,-3.27 3.69,-4.6 5.08,-4.6 a 2.85,2.85 0 0 1 2.25,0.91 2.46,2.46 0 0 0 2,0.25 2.53,2.53 0 0 0 1.55,-2.72 3,3 0 0 0 -3.13,-2.73"
     id="path14"
     style="fill:#ffffff" />
  <path
     d="m -1576.75,-1789.68 a 5.56,5.56 0 0 1 -3.32,1.08 c -2.25,0 -3,-1.64 -3,-5.33 v -15.69 l 6.38,-0.95 v -1.23 h -6.31 v -11.54 h -2.08 c -0.43,6.6 -2.76,10.94 -8.65,11.54 h -1 v 1.23 l 5.32,0.95 v 16 c 0,5.09 1.23,7.27 6,7.27 a 11.38,11.38 0 0 0 7.3,-2.35 l -0.62,-1"
     id="path15"
     style="fill:#ffffff" />
  <path
     d="m -1531.52,-1741.07 a 5.62,5.62 0 0 1 -3.31,1.08 c -2.25,0 -3,-1.64 -3,-5.33 V -1761 l 6.39,-0.95 v -1.23 h -6.39 v -11.55 h -2.08 c -0.42,6.6 -2.76,10.93 -8.65,11.54 h -1 v 1.19 l 5.32,0.95 v 16 c 0,5.09 1.23,7.27 6,7.27 a 11.38,11.38 0 0 0 7.3,-2.35 l -0.62,-1"
     id="path16"
     style="fill:#ffffff" />
  <path
     d="m -1678.56,-1754.24 h -9.92 c 0.56,-4.25 2.24,-7.39 5.21,-7.39 3.36,0 4.48,3.92 4.71,7.39 z m -10.2,2 h 16.47 c -0.17,-6.89 -3.75,-11.2 -11,-11.2 -7.25,0 -12.37,6.16 -12.37,12.88 0,7.79 5.09,12.88 12.43,12.88 a 17.4,17.4 0 0 0 11.42,-3.86 l -1.06,-1.68 a 14.51,14.51 0 0 1 -9.19,2.57 c -4.81,-0.33 -7.22,-5.37 -6.72,-11.59"
     id="path17"
     style="fill:#ffffff" />
  <path
     d="m -1489.94,-1754.24 h -9.91 c 0.56,-4.25 2.24,-7.39 5.21,-7.39 3.36,0 4.48,3.92 4.7,7.39 z m 4.7,-17.19 -2.4,-3.58 -8.57,6.72 1.4,2 9.57,-5.15 z m -14.89,19.15 h 16.46 c -0.17,-6.89 -3.75,-11.2 -11,-11.2 -7.25,0 -12.33,6.16 -12.33,12.88 0,7.78 5.1,12.88 12.43,12.88 a 17.46,17.46 0 0 0 11.43,-3.86 l -1.07,-1.68 a 14.54,14.54 0 0 1 -9.18,2.57 c -4.82,-0.33 -7.23,-5.37 -6.72,-11.59"
     id="path18"
     style="fill:#ffffff" />
</svg>
